<svg xmlns="http://www.w3.org/2000/svg" width="48.822" height="18.475" viewBox="0 0 48.822 18.475"><defs><style>.a{fill:#ffe100;}.b{fill:#fff;}</style></defs><path class="a" d="M215.576,56.6l5.75-4.255h1.889v.976l-5.356,3.965,5.356,3.965v.976h-1.889l-5.75-4.235Z" transform="translate(-215.576 -46.93)"/><path class="b" d="M290.749,43.245v-.581l-.789.6h-5.086l-2.1-1.764V35.087l2.1-1.744h5.169l.706.623V28.8h1.91V43.245Zm0-6.746-1.1-1.225H285.56l-.872.727v4.587l.872.727h4.172l1.017-.975Z" transform="translate(-273.478 -26.638)"/><path class="a" d="M372.868,15.979,370.9,29.99l-2.138,1.682-1.079-1.578,1.515-1.2,1.972-14.012L373.3,13.2l1.079,1.6Z" transform="translate(-346.63 -13.197)"/><path class="b" d="M437.435,42.878h-4.982l-.913-.6v.6h-1.91V28.347h1.91v5.231l.706-.623h5.19l2.1,1.764v6.394Zm.208-7.245-.893-.727h-4.089l-1.121,1.2v3.84l1.017.975h4.193l.893-.747Z" transform="translate(-400.008 -26.25)"/><path class="a" d="M515.069,62.229H513.18v-.976l5.356-3.965-5.356-3.965v-.976h1.889l5.75,4.255v1.391Z" transform="translate(-471.996 -46.93)"/></svg>