<svg xmlns="http://www.w3.org/2000/svg" viewBox="0 0 652 247"><defs><style>.cls-1{fill:#ffe700;}</style></defs><title>db_soft_1.1.1</title><g id="_bottom" data-name="&gt; bottom"><g id="_" data-name="&gt;"><path id="_2" data-name="&gt;" d="M575.17,204.07H550v-13l71.44-52.88L651.86,129v18.55Z"/></g></g><g id="_top" data-name="&gt; top"><path id="_3" data-name="&gt;" d="M621.41,138.17,550,85.28v-13h25.2L651.86,129Z"/></g><g id="_bottom-2" data-name="&lt; bottom"><g id="_4" data-name="&lt;"><path id="_5" data-name="&lt;" d="M31.08,138.17l71.44,52.88v13H77.32L.62,147.58Z"/></g></g><g id="_top-2" data-name="&lt; top"><path id="_6" data-name="&lt;" d="M.62,129l76.7-56.76h25.2v13L31.08,138.17Z"/></g><g id="_middle" data-name="&lt; middle"><path id="_7" data-name="&lt;" d="M.62,129l30.46,9.14L.62,147.58Z"/></g><g id="slash_line_top" data-name="slash line top"><g id="_8" data-name="/"><path id="_9" data-name="/" d="M350.61,37.1l-22.7-14.67L356.43,0l14.39,21.32Z"/></g></g><g id="slash_line_bottom" data-name="slash line bottom"><path id="_10" data-name="/" d="M324.31,224l-28.52,22.43-14.4-21,20.21-16.06Z"/></g><g id="slash_line" data-name="slash line"><path id="_11" data-name="/" d="M350.61,37.1,324.31,224,301.6,209.33l26.31-186.9Z"/></g><g id="b_tummy" data-name="b tummy"><g id="b"><polygon class="cls-1" points="499.85 89.44 430.91 89.44 421.49 97.74 421.49 131.52 421.5 131.52 436.17 115.19 490.72 115.19 502.35 124.88 502.35 186.07 490.72 195.76 435.06 195.76 421.49 182.75 421.49 213.76 432.02 221.79 499.85 221.79 527.82 198.25 527.82 112.69 499.85 89.44"/><path class="cls-1" d="M421.49,183.44v30.32"/></g></g><g id="b_line" data-name="b line"><path class="cls-1" d="M396,29.07V221.79h25.47V29.07Zm25.47,154v0Z"/></g><g id="d_tummy" data-name="d tummy"><g id="d"><path class="cls-1" d="M161.77,195.76l-11.63-9.69V124.88l11.63-9.69h54.55L231,131.49h0V97.74l-9.42-8.3H152.64l-28,23.25v85.56l28,23.54h67.83l10.53-8v-31l-13.57,13Z"/></g></g><g id="d_line" data-name="d line"><path class="cls-1" d="M231,29.07V221.79h25.47V29.07Zm0,185v0Z"/></g></svg>